<svg width="234" height="201" viewBox="0 0 234 201" fill="none" xmlns="http://www.w3.org/2000/svg">
<rect width="5.16" height="5.16" rx="2.58" fill="#1F1F1F"/>
<rect x="32.6399" width="5.16" height="5.16" rx="2.58" fill="#1F1F1F"/>
<rect x="65.2799" width="5.16" height="5.16" rx="2.58" fill="#1F1F1F"/>
<rect x="97.9199" width="5.16" height="5.16" rx="2.58" fill="#1F1F1F"/>
<rect x="130.56" width="5.16" height="5.16" rx="2.58" fill="#1F1F1F"/>
<rect x="163.2" width="5.16" height="5.16" rx="2.58" fill="#1F1F1F"/>
<rect x="195.84" width="5.16" height="5.16" rx="2.58" fill="#1F1F1F"/>
<rect x="228.48" width="5.16" height="5.16" rx="2.58" fill="#1F1F1F"/>
<rect y="32.64" width="5.16" height="5.16" rx="2.58" fill="#1F1F1F"/>
<rect x="32.6399" y="32.64" width="5.16" height="5.16" rx="2.58" fill="#1F1F1F"/>
<rect x="65.2799" y="32.64" width="5.16" height="5.16" rx="2.58" fill="#1F1F1F"/>
<rect x="97.9199" y="32.64" width="5.16" height="5.16" rx="2.58" fill="#1F1F1F"/>
<rect x="130.56" y="32.64" width="5.16" height="5.16" rx="2.58" fill="#1F1F1F"/>
<rect x="163.2" y="32.64" width="5.16" height="5.16" rx="2.58" fill="#1F1F1F"/>
<rect x="195.84" y="32.64" width="5.16" height="5.16" rx="2.58" fill="#1F1F1F"/>
<rect x="228.48" y="32.64" width="5.16" height="5.16" rx="2.58" fill="#1F1F1F"/>
<rect y="65.28" width="5.16" height="5.16" rx="2.58" fill="#1F1F1F"/>
<rect x="32.6399" y="65.28" width="5.16" height="5.16" rx="2.58" fill="#1F1F1F"/>
<rect x="65.2799" y="65.28" width="5.16" height="5.16" rx="2.58" fill="#1F1F1F"/>
<rect x="97.9199" y="65.28" width="5.16" height="5.16" rx="2.58" fill="#1F1F1F"/>
<rect x="130.56" y="65.28" width="5.16" height="5.16" rx="2.58" fill="#1F1F1F"/>
<rect x="163.2" y="65.28" width="5.16" height="5.16" rx="2.58" fill="#1F1F1F"/>
<rect x="195.84" y="65.28" width="5.16" height="5.16" rx="2.58" fill="#1F1F1F"/>
<rect x="228.48" y="65.28" width="5.16" height="5.16" rx="2.58" fill="#1F1F1F"/>
<rect y="97.92" width="5.16" height="5.16" rx="2.58" fill="#1F1F1F"/>
<rect x="32.6399" y="97.92" width="5.16" height="5.16" rx="2.58" fill="#1F1F1F"/>
<rect x="65.2799" y="97.92" width="5.16" height="5.16" rx="2.58" fill="#1F1F1F"/>
<rect x="97.9199" y="97.92" width="5.16" height="5.16" rx="2.58" fill="#1F1F1F"/>
<rect x="130.56" y="97.92" width="5.16" height="5.16" rx="2.58" fill="#1F1F1F"/>
<rect x="163.2" y="97.92" width="5.16" height="5.16" rx="2.58" fill="#1F1F1F"/>
<rect x="195.84" y="97.92" width="5.16" height="5.16" rx="2.58" fill="#1F1F1F"/>
<rect x="228.48" y="97.92" width="5.16" height="5.16" rx="2.58" fill="#1F1F1F"/>
<rect y="130.56" width="5.16" height="5.16" rx="2.58" fill="#1F1F1F"/>
<rect x="32.6399" y="130.56" width="5.16" height="5.16" rx="2.58" fill="#1F1F1F"/>
<rect x="65.2799" y="130.56" width="5.16" height="5.16" rx="2.58" fill="#1F1F1F"/>
<rect x="97.9199" y="130.56" width="5.16" height="5.16" rx="2.58" fill="#1F1F1F"/>
<rect x="130.56" y="130.56" width="5.16" height="5.16" rx="2.58" fill="#1F1F1F"/>
<rect x="163.2" y="130.56" width="5.16" height="5.16" rx="2.58" fill="#1F1F1F"/>
<rect x="195.84" y="130.56" width="5.16" height="5.16" rx="2.58" fill="#1F1F1F"/>
<rect x="228.48" y="130.56" width="5.16" height="5.16" rx="2.58" fill="#1F1F1F"/>
<rect y="163.2" width="5.16" height="5.16" rx="2.58" fill="#1F1F1F"/>
<rect x="32.6399" y="163.2" width="5.16" height="5.16" rx="2.58" fill="#1F1F1F"/>
<rect x="65.2799" y="163.2" width="5.16" height="5.16" rx="2.58" fill="#1F1F1F"/>
<rect x="97.9199" y="163.2" width="5.16" height="5.16" rx="2.58" fill="#1F1F1F"/>
<rect x="130.56" y="163.2" width="5.16" height="5.16" rx="2.58" fill="#1F1F1F"/>
<rect x="163.2" y="163.2" width="5.16" height="5.16" rx="2.58" fill="#1F1F1F"/>
<rect x="195.84" y="163.2" width="5.16" height="5.16" rx="2.58" fill="#1F1F1F"/>
<rect x="228.48" y="163.2" width="5.16" height="5.16" rx="2.58" fill="#1F1F1F"/>
<rect y="195.84" width="5.16" height="5.16" rx="2.58" fill="#1F1F1F"/>
<rect x="32.6399" y="195.84" width="5.16" height="5.16" rx="2.58" fill="#1F1F1F"/>
<rect x="65.2799" y="195.84" width="5.16" height="5.16" rx="2.58" fill="#1F1F1F"/>
<rect x="97.9199" y="195.84" width="5.16" height="5.16" rx="2.58" fill="#1F1F1F"/>
<rect x="130.56" y="195.84" width="5.16" height="5.16" rx="2.58" fill="#1F1F1F"/>
<rect x="163.2" y="195.84" width="5.16" height="5.16" rx="2.58" fill="#1F1F1F"/>
<rect x="195.84" y="195.84" width="5.16" height="5.16" rx="2.58" fill="#1F1F1F"/>
<rect x="228.48" y="195.84" width="5.16" height="5.16" rx="2.58" fill="#1F1F1F"/>
</svg>
