<svg width="76" height="76" viewBox="0 0 76 76" fill="none" xmlns="http://www.w3.org/2000/svg">
<g clip-path="url(#clip0)">
<path d="M64.5675 41.663C64.5613 39.1209 63.9622 36.6226 62.82 34.3546L65.4435 31.7312C67.4102 29.7645 67.4102 26.5641 65.4435 24.5972C64.4624 23.6161 63.1746 23.1247 61.8859 23.1223C61.8841 21.7775 61.3597 20.5136 60.4087 19.5624C59.4271 18.581 58.1382 18.0893 56.8488 18.0876C56.847 16.7981 56.3554 15.5092 55.3738 14.5276C54.4232 13.5772 53.16 13.0528 51.8163 13.0504C51.8137 11.7067 51.2895 10.4435 50.339 9.4929C49.3862 8.5401 48.1194 8.01538 46.772 8.01538C45.4247 8.01538 44.1578 8.5401 43.2051 9.4929L38.0016 14.6964L35.1062 11.8009C34.1534 10.8481 32.8867 10.3234 31.5392 10.3234C30.1917 10.3234 28.925 10.8481 27.9723 11.8009C27.0212 12.7521 26.4969 14.016 26.495 15.3608C25.2064 15.3632 23.9184 15.8547 22.9374 16.8357C21.9868 17.7862 21.4626 19.0493 21.4601 20.3932C20.1163 20.3957 18.8531 20.92 17.9025 21.8706C16.2784 23.4947 15.9969 25.9595 17.0551 27.8768C16.3263 28.1151 15.641 28.5219 15.0627 29.1002C13.0959 31.0671 13.0959 34.2674 15.0627 36.2343L17.1638 38.3354L0.471105 55.028C-0.108532 55.6077 -0.108532 56.5475 0.471105 57.1273C0.760998 57.4171 1.14084 57.5621 1.52069 57.5621C1.90053 57.5621 2.28052 57.4171 2.57027 57.1273L13.886 45.8116L24.4862 56.4117L7.50765 73.3903C6.92801 73.9699 6.92801 74.9098 7.50765 75.4896C7.79754 75.7793 8.17738 75.9243 8.55723 75.9243C8.93707 75.9243 9.31707 75.7793 9.60681 75.4896L32.5554 52.541C32.9781 52.1183 33.4594 51.7757 33.9801 51.518L37.5716 53.8836C39.947 55.4481 42.8431 56.0593 45.6353 55.6072L65.5934 75.5653C65.8833 75.855 66.2631 76 66.643 76C67.0228 76 67.4028 75.855 67.6925 75.5653C68.2722 74.9856 68.2722 74.0457 67.6925 73.466L56.1126 61.886L57.5124 60.4861C58.0921 59.9065 58.0921 58.9666 57.5124 58.3868C56.9328 57.8073 55.9929 57.8073 55.4131 58.3868L54.0132 59.7867L50.7357 56.5091L62.9753 44.2693L66.253 47.5471L64.8562 48.9438C64.2766 49.5236 64.2766 50.4634 64.8562 51.0431C65.1461 51.3329 65.526 51.4779 65.9058 51.4779C66.2857 51.4779 66.6657 51.3329 66.9554 51.0431L68.3522 49.6464L73.465 54.7592C73.7549 55.0489 74.1347 55.194 74.5146 55.194C74.8944 55.194 75.2744 55.0489 75.5642 54.7592C76.1438 54.1796 76.1438 53.2397 75.5642 52.6599L64.5675 41.663ZM45.3043 11.5921C45.6963 11.2 46.2176 10.9841 46.772 10.9841C47.3264 10.9841 47.8477 11.2 48.2397 11.5921C48.6319 11.9841 48.8477 12.5054 48.8477 13.0598C48.8477 13.6143 48.6317 14.1356 48.2397 14.5276L44.9779 17.7895C44.3982 18.3691 44.3982 19.309 44.9779 19.8888C45.5575 20.4686 46.4974 20.4684 47.0772 19.8888L50.339 16.627C50.7311 16.2348 51.2524 16.019 51.8069 16.019C52.3613 16.019 52.8826 16.2349 53.2746 16.627C54.084 17.4364 54.084 18.7531 53.2746 19.5625L48.2938 24.5434C47.7141 25.1231 47.7141 26.0629 48.2938 26.6427C48.5837 26.9326 48.9635 27.0775 49.3433 27.0775C49.7232 27.0775 50.1032 26.9326 50.3929 26.6427L55.3738 21.6619C55.7658 21.2697 56.2871 21.0539 56.8415 21.0539C57.3961 21.0539 57.9174 21.2698 58.3094 21.6619C58.7014 22.0539 58.9174 22.5752 58.9174 23.1296C58.9174 23.684 58.7014 24.2053 58.3094 24.5973L53.3285 29.5782C52.7489 30.1578 52.7489 31.0977 53.3285 31.6775C53.6184 31.9674 53.9983 32.1122 54.3781 32.1122C54.7579 32.1122 55.1379 31.9674 55.4277 31.6775L60.4084 26.6966C61.2177 25.8872 62.5347 25.8873 63.344 26.6966C64.1534 27.506 64.1534 28.8229 63.344 29.6322L51.075 41.9012C47.1468 45.8295 41.924 47.993 36.3684 47.993C34.864 47.993 33.4209 48.3891 32.156 49.1294L23.5644 40.5378C24.2255 40.2882 24.8323 39.8997 25.3471 39.3849C26.2983 38.4338 26.8225 37.1699 26.8245 35.825C28.113 35.8227 29.401 35.331 30.382 34.35C31.363 33.369 31.8545 32.0812 31.8569 30.7925C33.2017 30.7907 34.4657 30.2663 35.4168 29.3151C36.3978 28.3341 36.8892 27.0463 36.8916 25.7576C38.2364 25.7558 39.5003 25.2314 40.4514 24.2804C41.4042 23.3276 41.9289 22.0609 41.9289 20.7134C41.9289 19.3659 41.4042 18.0991 40.4514 17.1463L40.1003 16.7953L45.3043 11.5921ZM30.0715 13.9001C30.4635 13.5081 30.9848 13.2921 31.5392 13.2921C32.0936 13.2921 32.6149 13.5081 33.0069 13.9001L38.3527 19.2456C38.7447 19.6377 38.9606 20.159 38.9606 20.7134C38.9606 21.2678 38.7447 21.7891 38.3527 22.1812C37.9606 22.5732 37.4393 22.7892 36.8849 22.7892C36.3307 22.7892 35.8097 22.5734 35.4177 22.1817C35.4175 22.1815 35.4174 22.1814 35.4172 22.1811L30.0715 16.8355C29.6795 16.4435 29.4635 15.9222 29.4635 15.3678C29.4635 14.8134 29.6793 14.2922 30.0715 13.9001ZM25.0366 18.9348C25.4414 18.53 25.9728 18.3279 26.5045 18.3279C27.036 18.3279 27.5677 18.5302 27.9722 18.9348L33.3177 24.2804C34.1272 25.0898 34.127 26.4067 33.3177 27.2161C32.9257 27.6081 32.4044 27.8241 31.85 27.8241C31.2958 27.8241 30.7748 27.6083 30.3828 27.2166C30.3826 27.2164 30.3825 27.2163 30.3823 27.216L25.0367 21.8704C24.6446 21.4784 24.4287 20.9571 24.4287 20.4025C24.4286 19.8481 24.6446 19.327 25.0366 18.9348ZM20.0018 23.9697C20.3938 23.5776 20.9151 23.3617 21.4696 23.3617C22.0241 23.3617 22.5454 23.5777 22.9374 23.9697L28.283 29.3153C29.0924 30.1247 29.0924 31.4416 28.283 32.2509C27.4736 33.0601 26.1567 33.0603 25.3473 32.2509L20.0017 26.9053C19.1924 26.096 19.1924 24.779 20.0018 23.9697ZM17.1618 31.1994C17.5666 30.7946 18.0982 30.5924 18.6297 30.5924C19.1605 30.5924 19.6916 30.7944 20.0959 31.198L23.2481 34.3502C23.6401 34.7422 23.8561 35.2635 23.8561 35.8179C23.8561 36.3723 23.6401 36.8936 23.2481 37.2858C22.8561 37.6779 22.3348 37.8938 21.7802 37.8938C21.2263 37.8938 20.7053 37.6781 20.3132 37.2865L20.3125 37.2858L17.1618 34.1351C16.3526 33.3256 16.3526 32.0086 17.1618 31.1994ZM15.9853 43.7123L19.2631 40.4345L29.8634 51.0347L26.5856 54.3124L15.9853 43.7123ZM47.1732 52.9465C46.8076 52.5811 46.2783 52.4313 45.776 52.5532C43.5295 53.0939 41.1343 52.6753 39.2047 51.4043L38.4007 50.8747C43.9826 50.405 49.168 48.0069 53.1744 44.0004L60.5822 36.5927C61.2194 38.1327 61.5632 39.7787 61.5948 41.4519L48.6368 54.4101L47.1732 52.9465Z" fill="#fff"/>
<path d="M60.1329 53.6673C59.8568 53.9434 59.698 54.3249 59.698 54.7168C59.698 55.1072 59.8568 55.4902 60.1329 55.7661C60.409 56.0422 60.792 56.2012 61.1824 56.2012C61.5742 56.2012 61.9557 56.0423 62.2318 55.7661C62.5079 55.4902 62.6667 55.1072 62.6667 54.7168C62.6667 54.3248 62.5079 53.9434 62.2318 53.6673C61.9557 53.3912 61.5728 53.2324 61.1824 53.2324C60.792 53.2324 60.409 53.3912 60.1329 53.6673Z" fill="#fff"/>
<path d="M10.0287 12.1272C10.3186 12.4171 10.6984 12.562 11.0783 12.562C11.4581 12.562 11.8381 12.4171 12.1279 12.1272C12.7075 11.5476 12.7075 10.6077 12.1279 10.0279L5.14091 3.04093C4.56127 2.46129 3.62138 2.46129 3.0416 3.04093C2.46181 3.62057 2.46196 4.56045 3.0416 5.14024L10.0287 12.1272Z" fill="#fff"/>
<path d="M18.1098 8.09206C18.9296 8.09206 19.5942 7.42752 19.5942 6.60771V1.48435C19.5942 0.664542 18.9296 0 18.1098 0C17.29 0 16.6255 0.664542 16.6255 1.48435V6.60771C16.6255 7.42752 17.29 8.09206 18.1098 8.09206Z" fill="#fff"/>
<path d="M1.4852 19.5935H6.60857C7.42837 19.5935 8.09292 18.9289 8.09292 18.1091C8.09292 17.2893 7.42837 16.6248 6.60857 16.6248H1.4852C0.665396 16.6248 0.000854492 17.2893 0.000854492 18.1091C0.000854492 18.9289 0.665396 19.5935 1.4852 19.5935Z" fill="#fff"/>
<path d="M64.9217 12.5618C65.3016 12.5618 65.6816 12.4169 65.9713 12.127L72.9583 5.14005C73.5379 4.56041 73.5379 3.62053 72.9583 3.04074C72.3786 2.46096 71.4388 2.4611 70.859 3.04074L63.872 10.0277C63.2923 10.6073 63.2923 11.5472 63.872 12.127C64.162 12.4169 64.5419 12.5618 64.9217 12.5618Z" fill="#fff"/>
<path d="M57.8904 8.09206C58.7102 8.09206 59.3747 7.42752 59.3747 6.60771V1.48435C59.3747 0.664542 58.7102 0 57.8904 0C57.0705 0 56.406 0.664542 56.406 1.48435V6.60771C56.406 7.42752 57.0705 8.09206 57.8904 8.09206Z" fill="#fff"/>
<path d="M67.9072 18.1091C67.9072 18.9289 68.5718 19.5935 69.3916 19.5935H74.5149C75.3348 19.5935 75.9993 18.9289 75.9993 18.1091C75.9993 17.2893 75.3348 16.6248 74.5149 16.6248H69.3916C68.5718 16.6248 67.9072 17.2893 67.9072 18.1091Z" fill="#fff"/>
</g>
<defs>
<clipPath id="clip0">
<rect width="76" height="76" fill="white"/>
</clipPath>
</defs>
</svg>
