<svg width="80" height="80" viewBox="0 0 80 80" fill="none" xmlns="http://www.w3.org/2000/svg">
<g clip-path="url(#clip0)">
<path d="M49.913 22.1519C50.1311 21.8427 50.3043 21.5041 50.4267 21.1461C50.9755 21.2385 51.4989 21.4475 51.9599 21.7594C52.8876 22.3863 53.9755 22.734 55.0947 22.7626C55.4482 22.7613 55.8004 22.7288 56.148 22.6663C57.6123 22.4163 58.9176 21.5946 59.7757 20.3824C60.2353 19.6578 60.9788 19.1604 61.8232 19.0113C62.6683 18.8629 63.5368 19.0757 64.2158 19.5998C65.4378 20.4455 66.945 20.7711 68.4066 20.5048L67.9424 17.8785C67.098 18.0276 66.2295 17.814 65.5505 17.2906C63.0036 15.5477 59.5309 16.1604 57.7333 18.6688C57.2737 19.3935 56.5302 19.8909 55.6852 20.0399C55.3004 20.1174 54.9026 20.1077 54.5211 20.0119C55.3102 19.8036 56.04 19.4162 56.6546 18.8798C57.7978 17.9312 58.5172 16.5666 58.6546 15.0874C58.6904 14.23 59.0856 13.4279 59.7438 12.8771C60.3981 12.3198 61.2588 12.0698 62.109 12.189C63.5915 12.3237 65.0648 11.8498 66.1904 10.8771L64.4723 8.83543C63.8076 9.37255 62.9554 9.61995 62.1064 9.52229C59.0296 9.28726 56.3277 11.5536 56.025 14.6252C55.9898 15.4813 55.5953 16.2834 54.9391 16.8348C54.2822 17.3856 53.4241 17.6356 52.5745 17.5223C51.7424 17.4579 50.9058 17.5692 50.12 17.8505C49.7528 17.2138 49.217 16.6903 48.5718 16.3381L54.5335 4.42915C54.7405 4.01444 54.7177 3.52224 54.4729 3.12836C54.2281 2.73513 53.7965 2.49685 53.3336 2.49945C52.3941 2.50791 51.4924 2.13226 50.8375 1.45973C48.4833 -0.708907 44.8602 -0.708907 42.5067 1.45973C41.8452 2.1264 40.9448 2.50075 40.006 2.50075C39.0665 2.50075 38.1668 2.1264 37.5053 1.45973C35.1492 -0.707605 31.5255 -0.707605 29.1693 1.45973C28.5118 2.13291 27.6075 2.50856 26.6667 2.49945C26.2045 2.49945 25.7748 2.73838 25.5319 3.13162C25.2884 3.5242 25.2663 4.01574 25.4733 4.42915L31.4278 16.3381C30.4187 16.8765 29.6915 17.8251 29.4343 18.9397C29.1771 20.0543 29.4148 21.2255 30.0867 22.1519C17.8613 25.4358 9.35539 36.5075 9.33325 49.1665V73.1666C9.33716 76.847 12.3196 79.8288 16 79.8334H64.0003C67.68 79.8288 70.6625 76.847 70.667 73.1666V49.1665C70.6442 36.5075 62.1383 25.4358 49.913 22.1519ZM30.8347 3.54112C31.4968 2.87445 32.3972 2.49945 33.3373 2.49945C34.2768 2.49945 35.1778 2.87445 35.84 3.54112C38.1948 5.70781 41.8179 5.70781 44.1734 3.54112C44.8342 2.87445 45.7333 2.49945 46.6721 2.49945C47.6102 2.49945 48.51 2.87445 49.1708 3.54112C49.8075 4.10298 50.5406 4.54634 51.3349 4.84908L45.8426 15.8329H34.157L28.6667 4.85038C29.4617 4.54699 30.196 4.10363 30.8347 3.54112ZM33.3334 21.1663C32.5964 21.1663 32.0001 20.5692 32.0001 19.8329C32.0001 19.0966 32.5964 18.4996 33.3334 18.4996H46.6669C47.4032 18.4996 48.0002 19.0966 48.0002 19.8329C48.0002 20.5692 47.4032 21.1663 46.6669 21.1663H33.3334ZM68.0004 73.1666C68.0004 75.3756 66.2093 77.1667 64.0003 77.1667H16C13.7903 77.1667 11.9999 75.3756 11.9999 73.1666V49.1665C12.0149 35.1813 23.3483 23.8486 37.3335 23.8329H42.6668C56.6513 23.8486 67.9847 35.1813 68.0004 49.1665V73.1666Z" fill="#fff"/>
<path d="M31.0566 58.8898L47.0574 42.8896L48.9428 44.7751L32.9427 60.7758L31.0566 58.8898Z" fill="#fff"/>
<path d="M45.3333 53.1665C43.1236 53.1665 41.3333 54.9575 41.3333 57.1665C41.3333 59.3755 43.1236 61.1666 45.3333 61.1666C47.5423 61.1666 49.3333 59.3755 49.3333 57.1665C49.3333 54.9575 47.5423 53.1665 45.3333 53.1665ZM45.3333 58.4999C44.5963 58.4999 43.9999 57.9029 43.9999 57.1665C43.9999 56.4302 44.5963 55.8332 45.3333 55.8332C46.0696 55.8332 46.6666 56.4302 46.6666 57.1665C46.6666 57.9029 46.0696 58.4999 45.3333 58.4999Z" fill="#fff"/>
<path d="M34.6665 50.4998C36.8755 50.4998 38.6666 48.7088 38.6666 46.4998C38.6666 44.2908 36.8755 42.4998 34.6665 42.4998C32.4569 42.4998 30.6665 44.2908 30.6665 46.4998C30.6665 48.7088 32.4569 50.4998 34.6665 50.4998ZM34.6665 45.1664C35.4029 45.1664 35.9999 45.7635 35.9999 46.4998C35.9999 47.2361 35.4029 47.8331 34.6665 47.8331C33.9295 47.8331 33.3332 47.2361 33.3332 46.4998C33.3332 45.7635 33.9295 45.1664 34.6665 45.1664Z" fill="#fff"/>
<path d="M40.0001 33.1663C29.6901 33.1663 21.3333 41.5237 21.3333 51.8331C21.3333 62.1424 29.6901 70.4999 40.0001 70.4999C50.3094 70.4999 58.6669 62.1424 58.6669 51.8331C58.6558 41.5283 50.3048 33.1773 40.0001 33.1663ZM40.0001 67.8332C31.1634 67.8332 23.9999 60.6697 23.9999 51.8331C23.9999 42.9964 31.1634 35.8329 40.0001 35.8329C48.8361 35.8329 56.0002 42.9964 56.0002 51.8331C55.9904 60.6658 48.8322 67.8234 40.0001 67.8332Z" fill="#fff"/>
</g>
<defs>
<clipPath id="clip0">
<rect width="80" height="80" fill="white"/>
</clipPath>
</defs>
</svg>
